<?xml version="1.0" encoding="utf-8"?>
<!-- Generator: Adobe Illustrator 14.0.0, SVG Export Plug-In . SVG Version: 6.00 Build 43363)  -->
<!DOCTYPE svg PUBLIC "-//W3C//DTD SVG 1.1//EN" "http://www.w3.org/Graphics/SVG/1.1/DTD/svg11.dtd">
<svg version="1.1" id="Layer_1" xmlns="http://www.w3.org/2000/svg" xmlns:xlink="http://www.w3.org/1999/xlink" x="0px" y="0px"
	 width="612px" height="792px" viewBox="0 0 612 792" enable-background="new 0 0 612 792" xml:space="preserve">
<g>
	<polygon fill-rule="evenodd" clip-rule="evenodd" fill="#FFFFFF" points="209,300 401.756,300 401.756,492.756 209,492.756 
		209,300 	"/>
	
		<path fill-rule="evenodd" clip-rule="evenodd" fill="#040607" stroke="#040607" stroke-width="0.6601" stroke-miterlimit="2.6131" d="
		M289.27,391.401l1.078-5.048c0,0,0-2.524-1.438-2.524c-1.797-0.36-1.797-0.721-2.157,1.442c0,0-8.269,33.893-1.798,54.445
		c0,0,1.438,4.688,5.393,2.164c1.079-0.721,0.36-1.443-1.797-7.934c0,0-4.314-22.354,1.797-35.695
		c6.472-12.98,11.504-16.226,11.504-16.226s1.438-1.442,0.36-3.606c-0.719-0.721-2.517-1.803-4.674,0.721
		C297.538,379.142,291.786,384.911,289.27,391.401L289.27,391.401z"/>
	
		<path fill-rule="evenodd" clip-rule="evenodd" fill="#040607" stroke="#040607" stroke-width="0.6601" stroke-miterlimit="2.6131" d="
		M268.058,385.993c0,0,1.438-3.245,0-4.327c0-0.721-2.517-0.721-3.236,1.082c0,0-13.302,40.024-2.157,56.61
		c0,0,4.674,5.047,6.112-2.885c2.876-18.029,3.955-23.799,3.955-23.799s1.079,23.078,4.314,24.158
		c3.235,1.443,3.595,0.723,3.235-2.162c-0.359-2.885-6.831-34.977,1.438-53.725c0,0,1.078-0.361,0.359-1.803
		c0-1.082-2.876-1.803-4.314,0.721c-5.752,10.457-11.145,47.956-11.145,47.956s-0.359,2.885-1.078,3.605
		c-1.079,0.721-2.157-1.441-2.876-5.408C261.946,418.443,262.665,402.939,268.058,385.993L268.058,385.993z"/>
	<path fill="none" stroke="#040607" stroke-width="0.3246" stroke-miterlimit="2.6131" d="M257.632,367.604L257.632,367.604
		L257.632,367.604z"/>
	<path fill-rule="evenodd" clip-rule="evenodd" fill="#040607" d="M319.828,431.064l-0.359,1.08
		c-1.079,4.328-4.314,6.131-4.314,6.131s-4.674,3.244-5.033-1.443c-0.359-1.441,1.438-1.08,2.517-1.441
		c5.752-1.082,5.393-24.52,5.393-24.52s1.438-29.566-4.314-17.307c-6.471,14.783-5.033,28.846-4.313,42.908
		c0,2.523-0.359,2.885-1.438,3.605c-2.157,2.523-3.595-1.803-3.595-1.803c-2.876-6.852,0.359-53.725,2.157-72.835
		c-11.864,0-29.121,0.36-49.613,6.49c-5.034,24.879-7.19,58.052,3.235,90.862c0,0,1.798,7.572-4.314,1.805
		c-5.033-4.328-14.381-39.664-3.236-91.585c-11.504,3.605-23.369,8.653-35.952,16.226c0,0-3.236,2.524-4.314,1.082
		c-0.36-1.082-1.438-1.442,1.438-3.966c0,0,13.662-10.096,39.906-17.667c2.876-12.62,7.19-26.683,12.942-41.105
		c0,0,1.079-2.164,2.517-1.442c0.719,0,1.438,0.721,0.36,3.245c0,0-6.831,15.144-11.864,38.22c13.302-3.605,29.48-6.129,48.895-6.49
		c0.359-2.524,0.359-3.966,0.359-3.966c1.438-11.178,7.19-3.606,5.752-1.442c0,0.361-0.359,2.164-0.719,5.409
		c2.517,0,5.033,0,7.909,0c0,0,1.438,0,2.157,1.082c0.719,0.721,0.359,1.442-1.438,2.524c-1.078,0.721-4.314,0.721-8.987,0.721
		c-1.438,12.259-2.877,31.729-2.877,31.729c6.472-17.667,10.066-16.586,11.864-13.341c2.157,4.327,1.798,17.669,1.798,23.437
		c1.078-3.605,3.235-9.014,7.19-16.225c2.876-4.688,4.314-4.327,7.19-3.605c3.954,0.36,3.595,4.687,3.595,4.687
		s1.798,30.288-8.628,43.63C320.906,449.453,319.828,431.064,319.828,431.064L319.828,431.064z M323.423,419.525
		c0-0.361,0-0.721,0.359-1.441c0-1.803,0.72-2.885,1.079-3.967c2.157-8.654,5.752-15.865,5.752-15.865
		c2.157-4.688,4.314-6.851,5.033-6.49c1.079,0.36,1.438,4.327,1.438,5.048c0,1.442,0,22.354-6.472,33.173
		c-5.033,8.293-6.831,4.326-6.831,4.326c-1.078-1.082-1.078-2.523-1.078-2.523s0-1.443,0-2.523
		C322.704,428.539,322.704,423.852,323.423,419.525L323.423,419.525z"/>
	<path fill="none" stroke="#040607" stroke-width="0.6601" stroke-miterlimit="2.6131" d="M319.828,431.064l-0.359,1.08
		c-1.079,4.328-4.314,6.131-4.314,6.131s-4.674,3.244-5.033-1.443c0-1.441,1.438-1.08,2.517-1.441
		c5.752-1.082,5.393-24.52,5.393-24.52s1.438-29.566-4.314-17.307c-6.471,14.783-5.033,28.846-4.313,42.908
		c0,2.523-0.359,2.885-1.438,3.605c-2.157,2.523-3.595-1.803-3.595-1.803c-2.876-6.852,0.36-53.725,2.158-72.835
		c-11.864,0-29.121,0.361-49.613,6.49c-5.034,24.879-7.19,58.052,3.235,90.863c0,0,1.798,7.572-4.314,1.805
		c-5.033-4.328-14.381-39.664-3.236-91.585c-11.504,3.605-23.369,8.653-35.952,16.226c0,0-3.236,2.524-4.314,1.082
		c-0.36-1.082-1.438-1.442,1.438-3.966c0,0,13.662-10.096,39.906-17.668c2.876-12.62,7.19-26.682,12.942-41.104
		c0,0,1.079-2.164,2.517-1.442c0.719,0,1.438,0.721,0.36,3.245c0,0-6.831,15.144-11.864,38.22c13.302-3.605,29.48-6.129,48.895-6.49
		c0.359-2.524,0.359-3.966,0.359-3.966c1.438-11.178,7.19-3.606,5.752-1.442c0,0.36-0.359,2.164-0.719,5.409
		c2.517,0,5.033,0,7.909,0c0,0,1.438,0,2.157,1.082c0.719,0.721,0.359,1.442-1.438,2.524c-1.078,0.721-4.314,0.721-8.987,0.721
		c-1.438,12.26-2.877,31.73-2.877,31.73c6.472-17.667,10.066-16.586,11.864-13.341c2.157,4.327,1.798,17.669,1.798,23.437
		c1.078-3.605,3.235-9.014,7.19-16.225c2.876-4.688,4.314-4.327,7.19-3.606c3.954,0.361,3.595,4.688,3.595,4.688
		s1.798,30.288-8.628,43.63C320.906,449.453,319.828,431.064,319.828,431.064L319.828,431.064z M323.423,419.525
		c0-0.361,0-0.721,0.359-1.441c0-1.803,0.72-2.885,1.079-3.967c2.157-8.654,5.752-15.865,5.752-15.865
		c2.157-4.688,4.314-6.851,5.033-6.49c1.079,0.36,1.438,4.327,1.438,5.048c0,1.442,0,22.354-6.472,33.173
		c-5.033,8.293-6.831,4.326-6.831,4.326c-1.078-1.082-1.078-2.523-1.078-2.523s0-1.443,0-2.523
		C322.704,428.539,322.704,423.852,323.423,419.525L323.423,419.525z"/>
	
		<path fill-rule="evenodd" clip-rule="evenodd" fill="#0083C7" stroke="#0083C7" stroke-width="0.2396" stroke-linecap="round" stroke-miterlimit="2.6131" d="
		M227.433,428.9c0,1.803,0,2.164-2.157,2.164c-1.797,0-2.517-0.361-2.517-3.246s0.719-3.244,2.517-3.244
		c1.079,0,1.438,0,1.798,0.359c0.359,0.361,0.359,0.721,0.359,1.443h5.033c0-4.688-2.876-5.049-7.19-5.049
		c-6.112,0-7.19,2.164-7.19,6.49c0,5.049,1.438,6.49,7.19,6.49c2.517,0,4.314-0.359,5.393-1.082
		c1.438-0.721,1.798-1.803,1.798-4.326H227.433L227.433,428.9z"/>
	
		<path fill-rule="evenodd" clip-rule="evenodd" fill="#0083C7" stroke="#0083C7" stroke-width="0.2396" stroke-linecap="round" stroke-miterlimit="2.6131" d="
		M233.544,416.281v17.668h5.033v-2.164l0,0c0.719,1.803,2.157,2.523,4.314,2.523c3.595,0,5.752-1.441,5.752-4.688v-2.885
		c0-3.965-1.438-5.408-5.752-5.408c-1.797,0-3.235,0.361-3.955,1.803h-0.359v-6.85H233.544L233.544,416.281z M241.094,431.064
		c-2.517,0-2.517-0.723-2.517-3.246c0-2.885,0.719-3.244,2.517-3.244c2.517,0,2.517,1.08,2.517,3.244
		C243.611,430.342,243.251,431.064,241.094,431.064L241.094,431.064z"/>
	
		<path fill-rule="evenodd" clip-rule="evenodd" fill="#0083C7" stroke="#0083C7" stroke-width="0.2396" stroke-linecap="round" stroke-miterlimit="2.6131" d="
		M295.381,428.9c0,1.803,0,2.164-2.517,2.164c-1.797,0-2.157-0.361-2.157-3.246s0.719-3.244,2.157-3.244
		c1.079,0,1.798,0,2.157,0.359c0.359,0.361,0.359,0.721,0.359,1.443h5.033c0-4.688-3.235-5.049-7.55-5.049
		c-6.111,0-7.19,2.164-7.19,6.49c0,5.049,1.438,6.49,7.19,6.49c2.876,0,4.674-0.359,5.752-1.082
		c1.079-0.721,1.797-1.803,1.797-4.326H295.381L295.381,428.9z"/>
	<path fill-rule="evenodd" clip-rule="evenodd" fill="#0083C7" d="M306.526,416.281h-5.034v17.668h5.034v-6.852
		c0-1.443,0.359-2.523,2.517-2.523c1.438,0,1.797,0.359,2.156,1.803v7.572h4.674v-8.654c0-2.523-1.438-3.967-4.674-3.967
		c-2.517,0-3.954,0.721-4.673,2.523l0,0V416.281L306.526,416.281z"/>
	<path fill="none" stroke="#0083C7" stroke-width="0.2396" stroke-linecap="round" stroke-miterlimit="2.6131" d="M306.526,416.281
		h-5.034v17.668h5.034v-6.852c0-1.443,0.359-2.523,2.517-2.523c1.438,0,2.156,0.359,2.156,1.803v7.572h4.674v-8.654
		c0-2.523-1.438-3.967-4.674-3.967c-2.517,0-3.954,0.721-4.673,2.523l0,0V416.281L306.526,416.281z"/>
	
		<path fill-rule="evenodd" clip-rule="evenodd" fill="#0083C7" stroke="#0083C7" stroke-width="0.2396" stroke-linecap="round" stroke-miterlimit="2.6131" d="
		M324.143,428.9c1.797,0,2.876,0,2.876,1.082c0,1.441-0.72,1.441-2.876,1.441c-0.72,0-2.157,0-2.157-1.441
		C321.985,428.9,323.063,428.9,324.143,428.9L324.143,428.9z M327.019,433.949h5.033v-7.572c0-4.328-2.157-5.049-7.19-5.049
		c-3.596,0-7.19,0-7.19,3.967h5.033c0-1.082,0.719-1.443,2.157-1.443c2.157,0,2.157,0.723,2.157,1.803v2.164h-0.359
		c-0.36-1.441-2.517-1.441-3.955-1.441c-3.595,0-5.393,0.721-5.393,3.965c0,3.246,1.798,3.967,5.393,3.967
		c1.798,0,3.955-0.359,4.314-2.164l0,0V433.949L327.019,433.949z"/>
	
		<path fill-rule="evenodd" clip-rule="evenodd" fill="#0083C7" stroke="#0083C7" stroke-width="0.2396" stroke-linecap="round" stroke-miterlimit="2.6131" d="
		M341.759,427.098h4.313v-1.082c0-2.164,0-4.688-3.595-4.688c-1.798,0-3.235,0.721-3.955,2.164l0,0v-2.164h-4.673v12.621h4.673
		v-7.572c0-0.723,0.36-1.803,1.798-1.803c1.438,0,1.438,1.08,1.438,1.803V427.098L341.759,427.098z"/>
	
		<path fill-rule="evenodd" clip-rule="evenodd" fill="#0083C7" stroke="#0083C7" stroke-width="0.2396" stroke-linecap="round" stroke-miterlimit="2.6131" d="
		M354.342,430.703c-1.798,0-2.517-0.361-2.517-2.885c0-2.885,0.359-3.244,2.517-3.244s2.876,0.359,2.876,3.244
		C357.218,429.982,356.858,430.703,354.342,430.703L354.342,430.703z M347.511,435.029c0.359,3.967,1.798,4.688,7.19,4.688
		c5.752,0,7.19-1.441,7.19-6.129v-12.26h-4.674v2.523l0,0c-0.719-2.162-2.157-2.523-4.314-2.523c-5.393,0-5.752,2.523-5.752,6.49
		c0,3.605,0.359,6.131,5.752,6.131c1.798,0,3.596-0.361,3.955-1.805h0.359v2.525c0,1.803-0.719,1.803-2.517,1.803
		c-0.719,0-1.438,0-1.798,0c-0.359-0.361-0.719-0.721-0.719-1.443H347.511L347.511,435.029z"/>
	
		<path fill-rule="evenodd" clip-rule="evenodd" fill="#0083C7" stroke="#0083C7" stroke-width="0.2396" stroke-linecap="round" stroke-miterlimit="2.6131" d="
		M368.722,426.377c0-1.803,0.72-2.164,2.517-2.164c1.438,0,2.517,0,2.517,2.164H368.722L368.722,426.377z M373.755,429.982
		c0,1.082-1.078,1.441-2.517,1.441c-2.156,0-2.517-0.721-2.517-2.885h9.707v-0.721c0-5.047-1.438-6.49-7.19-6.49
		c-6.111,0-7.55,1.803-7.55,6.49s1.438,6.49,7.55,6.49c2.157,0,3.955-0.359,5.394-0.721c1.078-0.721,1.797-1.803,1.797-3.605
		H373.755L373.755,429.982z"/>
	
		<path fill-rule="evenodd" clip-rule="evenodd" fill="#0083C7" stroke="#0083C7" stroke-width="0.2396" stroke-linecap="round" stroke-miterlimit="2.6131" d="
		M388.136,427.098h4.674v-1.082c0-2.164-0.359-4.688-3.955-4.688c-1.797,0-2.876,0.721-3.595,2.164H384.9v-2.164h-4.674v12.621
		h5.033v-7.572c0-0.723,0.359-1.803,1.798-1.803c1.438,0,1.078,1.08,1.078,1.803V427.098L388.136,427.098z"/>
	<path fill-rule="evenodd" clip-rule="evenodd" fill="#0083C7" d="M396.045,422.049h0.359l0.359,1.443h0.72l-0.72-1.443
		c0.36,0,0.72,0,0.72-0.721c0-0.359-0.359-0.721-1.079-0.721h-1.078v2.885h0.719V422.049L396.045,422.049z M396.045,421.689v-0.721
		h0.359c0.359,0,0.359,0.359,0.359,0.359c0,0.361,0,0.361-0.359,0.361H396.045L396.045,421.689z M398.921,422.049
		c0-1.441-1.078-2.523-2.517-2.523c-1.078,0-2.517,1.082-2.517,2.523c0,1.443,1.438,2.525,2.517,2.525
		C397.843,424.574,398.921,423.492,398.921,422.049L398.921,422.049z M398.202,422.049c0,1.082-0.719,1.803-1.798,1.803l0,0
		c-1.078,0-1.797-0.721-1.797-1.803c0-1.08,0.719-1.803,1.797-1.803C397.483,420.246,398.202,420.969,398.202,422.049
		L398.202,422.049z"/>
</g>
</svg>
